4d 54 68 64 00 00 00 06 00 01 00 02 01 80 4d 54 72 6b 00 00 00 3c 00 ff 58 04 04 02 18 08 00 ff 51 03 07 a1 20 00 90 3e 64 83 60 80 3e 40 00 90 41 64 83 60 80 41 40 00 90 44 64 83 60 80 44 40 00 90 47 64 83 60 80 47 40 00 ff 2f 00 4d 54 72 6b 00 00 00 3c 00 ff 58 04 04 02 18 08 00 ff 51 03 07 a1 20 00 90 4b 64 83 60 80 4b 40 00 90 47 64 83 60 80 47 40 00 90 44 64 83 60 80 44 40 00 90 41 64 83 60 80 41 40 00 ff 2f 00