4d 54 68 64 00 00 00 06 00 01 00 02 01 80 4d 54 72 6b 00 00 00 3c 00 ff 58 04 04 02 18 08 00 ff 51 03 07 a1 20 00 90 3c 64 83 60 80 3c 40 00 90 40 64 83 60 80 40 40 00 90 43 64 83 60 80 43 40 00 90 48 64 83 60 80 48 40 00 ff 2f 00 4d 54 72 6b 00 00 00 3c 00 ff 58 04 04 02 18 08 00 ff 51 03 07 a1 20 00 90 4c 64 83 60 80 4c 40 00 90 48 64 83 60 80 48 40 00 90 43 64 83 60 80 43 40 00 90 40 64 83 60 80 40 40 00 ff 2f 00